<svg width="300" height="300" viewBox="0 0 300 300" fill="none" xmlns="http://www.w3.org/2000/svg">
<path d="M155.898 159.563C155.072 159.619 154.447 160.335 154.504 161.161C154.56 161.988 155.275 162.612 156.102 162.556L155.898 159.563ZM214.019 151.76L213.745 153.235L213.745 153.235L214.019 151.76ZM223.718 173.582L224.156 175.016L223.718 173.582ZM211.265 162.654L209.867 162.11L209.867 162.11L211.265 162.654ZM289.153 145.168C289.769 144.615 289.82 143.667 289.267 143.05L280.247 133.006C279.694 132.389 278.745 132.338 278.129 132.892C277.512 133.445 277.461 134.394 278.015 135.01L286.032 143.939L277.104 151.956C276.487 152.51 276.436 153.458 276.99 154.074C277.543 154.691 278.492 154.742 279.108 154.188L289.153 145.168ZM156.102 162.556C168.232 161.731 179.525 158.745 189.323 156.322C194.246 155.105 198.771 154.034 202.889 153.418C207.011 152.801 210.629 152.657 213.745 153.235L214.292 150.286C210.708 149.62 206.716 149.812 202.445 150.451C198.17 151.091 193.518 152.195 188.603 153.41C178.729 155.851 167.713 158.759 155.898 159.563L156.102 162.556ZM213.745 153.235C219.666 154.335 223.276 156.101 225.376 158.001C227.43 159.86 228.112 161.907 228.081 163.848C228.048 165.848 227.252 167.833 226.181 169.414C225.65 170.198 225.072 170.852 224.53 171.332C223.968 171.831 223.527 172.072 223.281 172.147L224.156 175.016C224.979 174.765 225.796 174.22 226.522 173.576C227.268 172.914 228.007 172.067 228.665 171.097C229.971 169.169 231.036 166.626 231.08 163.897C231.125 161.11 230.098 158.228 227.389 155.777C224.725 153.367 220.515 151.441 214.292 150.286L213.745 153.235ZM223.281 172.147C220.28 173.063 216.936 172.334 214.7 170.579C212.534 168.88 211.459 166.291 212.663 163.198L209.867 162.11C208.119 166.602 209.79 170.54 212.848 172.939C215.835 175.283 220.193 176.226 224.156 175.016L223.281 172.147ZM212.663 163.198C213.333 161.477 215.384 159.285 219.132 156.991C222.822 154.733 227.953 152.5 234.432 150.597C247.383 146.791 265.58 144.341 288.07 145.55L288.231 142.555C265.452 141.33 246.909 143.803 233.586 147.718C226.928 149.675 221.539 152.002 217.567 154.432C213.653 156.827 210.901 159.453 209.867 162.11L212.663 163.198Z" fill="#0077CD"/>
</svg>
