<svg width="180" height="180" viewBox="0 0 180 180" fill="none" xmlns="http://www.w3.org/2000/svg">
<path d="M84.1668 24.223C85.6422 18.0959 94.3578 18.0959 95.8332 24.223L102.729 52.8593C103.618 56.5479 107.664 58.4963 111.101 56.891L137.79 44.4281C143.5 41.7615 148.934 48.5756 145.064 53.5493L126.974 76.7953C124.644 79.7896 125.644 84.1677 129.042 85.8545L155.426 98.9498C161.071 101.752 159.132 110.249 152.83 110.324L123.377 110.675C119.583 110.72 116.783 114.231 117.583 117.94L123.795 146.732C125.124 152.893 117.272 156.674 113.284 151.794L94.6461 128.986C92.2454 126.048 87.7546 126.048 85.3539 128.986L66.716 151.794C62.7282 156.674 54.8758 152.893 56.2048 146.732L62.4166 117.94C63.2167 114.231 60.4168 110.72 56.623 110.675L27.1702 110.324C20.8684 110.249 18.929 101.752 24.5741 98.9498L50.9579 85.8545C54.3564 84.1677 55.3557 79.7896 53.0256 76.7953L34.9365 53.5493C31.0661 48.5756 36.5002 41.7615 42.2104 44.4281L68.8988 56.891C72.3365 58.4963 76.3825 56.5479 77.2707 52.8593L84.1668 24.223Z" fill="#3BADFF"/>
</svg>
