<svg width="24" height="24" viewBox="0 0 24 24" fill="none" xmlns="http://www.w3.org/2000/svg">
<g clip-path="url(#clip0_26_127)">
<path d="M5.16779 8.75514C5.16779 6.30318 6.50647 4.14811 8.48837 2.98535H5.81652C2.63338 2.98535 0.0302372 5.59124 0.0302372 8.77438C0.0302372 11.9575 2.63612 14.5634 5.81926 14.5634H8.5571C6.53946 13.4089 5.17054 11.2346 5.17054 8.75514H5.16779Z" fill="white"/>
<path d="M12.7298 15.0498C12.7298 12.5979 11.3911 10.4428 9.40923 9.28003H12.0811C15.2642 9.28003 17.8701 11.8859 17.8701 15.0691C17.8701 18.2522 15.2642 20.8581 12.0811 20.8581H9.34326C11.3609 19.7036 12.7298 17.5293 12.7298 15.0498Z" fill="white"/>
<path d="M11.5726 15.7977C11.2757 18.7279 8.79899 21.0149 5.78903 21.0149C2.77906 21.0149 0.261138 18.6894 0 15.7207L11.5726 15.7977Z" fill="white"/>
<path d="M17.9801 8.20262C17.6832 5.27237 15.2093 2.98535 12.1993 2.98535C9.18933 2.98535 6.6714 5.31361 6.41026 8.27959L17.9828 8.20262H17.9801Z" fill="white"/>
<path d="M23.1754 11.3115H24.0028V16.4848C24.0028 18.8983 22.0428 20.8582 19.6294 20.8582H18.802V15.6849C18.802 13.2714 20.7619 11.3115 23.1754 11.3115Z" fill="white"/>
<path d="M18.802 5.33545H20.7729C22.5541 5.33545 24 6.78133 24 8.56257V10.5335H22.0291C20.2479 10.5335 18.802 9.0876 18.802 7.30636V5.33545Z" fill="white"/>
<path d="M23.8653 6.21247V6.35525C23.3486 5.16066 22.1592 4.32403 20.7756 4.32403H18.9422V3.12279H20.7756C22.481 3.12279 23.8653 4.50714 23.8653 6.21247Z" fill="white" stroke="white" stroke-width="0.274883"/>
<path d="M8.28886 11.1966C8.27175 10.9671 8.52749 10.8194 8.71774 10.949L9.18809 11.2694C9.2395 11.3044 9.30126 11.321 9.36328 11.3164L9.93083 11.2741C10.1604 11.2569 10.308 11.5127 10.1784 11.7029L9.85803 12.1733C9.82302 12.2247 9.80647 12.2865 9.81109 12.3485L9.85339 12.916C9.8705 13.1456 9.61476 13.2932 9.42451 13.1636L8.95416 12.8432C8.90275 12.8082 8.841 12.7917 8.77897 12.7963L8.21143 12.8386C7.98187 12.8557 7.83422 12.6 7.96381 12.4097L8.28422 11.9394C8.31924 11.8879 8.33578 11.8262 8.33116 11.7642L8.28886 11.1966Z" fill="#75BDFF"/>
</g>
<defs>
<clipPath id="clip0_26_127">
<rect width="24" height="18.0295" fill="white" transform="translate(0 2.98535)"/>
</clipPath>
</defs>
</svg>
