<svg width="34" height="34" viewBox="0 0 34 34" fill="none" xmlns="http://www.w3.org/2000/svg">
<path d="M16.0504 0.877139C16.3525 -0.0382947 17.6475 -0.0382966 17.9496 0.877137L20.1265 7.47275C20.318 8.0529 20.9804 8.32726 21.526 8.05243L27.7291 4.92794C28.5901 4.49427 29.5057 5.40993 29.0721 6.27089L25.9476 12.474C25.6727 13.0196 25.9471 13.682 26.5272 13.8735L33.1229 16.0504C34.0383 16.3525 34.0383 17.6475 33.1229 17.9496L26.5273 20.1265C25.9471 20.318 25.6727 20.9804 25.9476 21.526L29.0721 27.7291C29.5057 28.5901 28.5901 29.5057 27.7291 29.0721L21.526 25.9476C20.9804 25.6727 20.318 25.9471 20.1265 26.5273L17.9496 33.1229C17.6475 34.0383 16.3525 34.0383 16.0504 33.1229L13.8735 26.5273C13.682 25.9471 13.0196 25.6727 12.474 25.9476L6.27089 29.0721C5.40994 29.5057 4.49427 28.5901 4.92794 27.7291L8.05243 21.526C8.32726 20.9804 8.0529 20.318 7.47275 20.1265L0.877139 17.9496C-0.0382947 17.6475 -0.0382966 16.3525 0.877137 16.0504L7.47275 13.8735C8.0529 13.682 8.32726 13.0196 8.05243 12.474L4.92794 6.27089C4.49427 5.40994 5.40993 4.49427 6.27089 4.92794L12.474 8.05243C13.0196 8.32726 13.682 8.0529 13.8735 7.47275L16.0504 0.877139Z" fill="#3BADFF"/>
</svg>
